<svg width="73" height="72" viewBox="0 0 73 72" fill="none" xmlns="http://www.w3.org/2000/svg">
<path fill-rule="evenodd" clip-rule="evenodd" d="M30.2597 2.73349C29.4101 2.73349 28.7289 3.42523 28.7289 4.26423V11.508C28.7289 12.0777 28.3755 12.5877 27.8421 12.7877C26.969 13.1151 26.1812 13.4216 25.4313 13.7965C24.9051 14.0596 24.2696 13.9565 23.8536 13.5405L18.7147 8.40152C18.1277 7.81453 17.1616 7.81453 16.5746 8.40152L8.40152 16.5747C7.81494 17.1612 7.81453 18.1263 8.4003 18.7134C8.40071 18.7138 8.3999 18.713 8.4003 18.7134L13.5379 23.8237C13.9559 24.2396 14.0601 24.8766 13.7965 25.404C13.4137 26.1695 13.0817 26.9611 12.8005 27.7792C12.6107 28.331 12.0915 28.7016 11.5079 28.7016H4.26423C3.41469 28.7016 2.73349 29.3933 2.73349 30.2323V41.7677C2.73349 42.6172 3.42523 43.2984 4.26423 43.2984H11.5079C12.0777 43.2984 12.5876 43.6518 12.7877 44.1852C13.1036 45.0278 13.4453 45.8425 13.8125 46.6293C14.0561 47.1513 13.9463 47.7701 13.5379 48.1763L8.40152 53.2853C8.40123 53.2856 8.4018 53.2851 8.40152 53.2853C7.81539 53.8724 7.81482 54.8387 8.40152 55.4254L16.5746 63.5985C17.1616 64.1855 18.1277 64.1855 18.7147 63.5985L23.8536 58.4595C24.2696 58.0436 24.9051 57.9404 25.4313 58.2035C26.1968 58.5863 26.9884 58.9183 27.8065 59.1995C28.3584 59.3892 28.7289 59.9085 28.7289 60.492V67.7358C28.7289 68.5853 29.4207 69.2665 30.2597 69.2665H41.795C42.6445 69.2665 43.3257 68.5748 43.3257 67.7358V60.492C43.3257 59.9223 43.6791 59.4124 44.2126 59.2123C45.0856 58.8849 45.8735 58.5785 46.6234 58.2035C47.1496 57.9404 47.7851 58.0436 48.2011 58.4595L53.34 63.5985C53.927 64.1855 54.893 64.1855 55.48 63.5985L63.6532 55.4254C64.2399 54.8386 64.2401 53.873 63.6537 53.2859C63.6535 53.2857 63.6539 53.2861 63.6537 53.2859L58.5168 48.1763C58.0987 47.7605 57.9945 47.1235 58.2582 46.5961C58.6409 45.8306 58.9729 45.0389 59.2542 44.2208C59.4439 43.6689 59.9631 43.2984 60.5467 43.2984H67.7904C68.64 43.2984 69.3212 42.6067 69.3212 41.7677V30.2323C69.3212 29.3828 68.6294 28.7016 67.7904 28.7016H60.5467C59.977 28.7016 59.467 28.3482 59.267 27.8148C58.951 26.9722 58.6093 26.1576 58.2421 25.3707C57.9985 24.8487 58.1083 24.23 58.5168 23.8237L63.6532 18.7147C63.6535 18.7143 63.6528 18.715 63.6532 18.7147C64.2392 18.1276 64.2398 17.1613 63.6532 16.5747L55.48 8.40152C54.893 7.81453 53.927 7.81453 53.34 8.40152L48.2011 13.5405C47.7851 13.9565 47.1496 14.0596 46.6234 13.7965C45.8579 13.4137 45.0663 13.0817 44.2482 12.8005C43.6963 12.6108 43.3257 12.0916 43.3257 11.508V4.26423C43.3257 3.41469 42.634 2.73349 41.795 2.73349H30.2597ZM25.9954 4.26423C25.9954 1.93239 27.8837 0 30.2597 0H41.795C44.1268 0 46.0592 1.88826 46.0592 4.26423V10.5553C46.3585 10.6732 46.6548 10.7973 46.9481 10.9277L51.4072 6.46865C53.0616 4.81418 55.7584 4.81418 57.4129 6.46865L65.586 14.6418C67.2405 16.2963 67.2405 18.993 65.586 20.6475L65.5834 20.6501L61.1152 25.0945C61.2404 25.3828 61.3624 25.674 61.4812 25.9681H67.7904C70.1223 25.9681 72.0547 27.8564 72.0547 30.2323V41.7677C72.0547 44.0995 70.1664 46.0319 67.7904 46.0319H61.4993C61.3818 46.3304 61.2581 46.6258 61.128 46.9182L65.586 51.3525C67.2405 53.007 67.2405 55.7038 65.586 57.3583L57.4129 65.5313C55.7584 67.1858 53.0616 67.1858 51.4072 65.5314L46.9437 61.068C46.6484 61.1963 46.353 61.3169 46.0592 61.4326V67.7358C46.0592 70.0676 44.1709 72 41.795 72H30.2597C27.9278 72 25.9954 70.1117 25.9954 67.7358V61.4447C25.6961 61.3269 25.3998 61.2027 25.1066 61.0723L20.6475 65.5314C18.993 67.1858 16.2962 67.1858 14.6417 65.5313L6.46865 57.3583C4.81418 55.7038 4.81418 53.007 6.46865 51.3525L10.9394 46.9055C10.8142 46.6172 10.6923 46.326 10.5735 46.0319H4.26423C1.93239 46.0319 0 44.1436 0 41.7677V30.2323C0 27.9005 1.88826 25.9681 4.26423 25.9681H10.5553C10.6728 25.6696 10.7966 25.3742 10.9266 25.0818L6.47123 20.6501L6.46865 20.6475C4.81418 18.993 4.81417 16.2963 6.46865 14.6418L14.6417 6.46865C16.2962 4.81418 18.993 4.81418 20.6475 6.46865L25.1109 10.9321C25.4062 10.8038 25.7016 10.6831 25.9954 10.5675V4.26423Z" fill="white"/>
<path fill-rule="evenodd" clip-rule="evenodd" d="M43.0973 27.3254C43.6311 26.7916 44.4964 26.7916 45.0302 27.3254L53.258 35.5531C53.5143 35.8094 53.6583 36.1571 53.6583 36.5196C53.6583 36.8821 53.5143 37.2297 53.258 37.486L45.0302 45.7138C44.4964 46.2475 43.6311 46.2475 43.0973 45.7138C42.5636 45.18 42.5636 44.3147 43.0973 43.7809L50.3587 36.5196L43.0973 29.2582C42.5636 28.7245 42.5636 27.8591 43.0973 27.3254Z" fill="white"/>
<path fill-rule="evenodd" clip-rule="evenodd" d="M28.9569 27.3517C29.4907 27.8855 29.4907 28.7508 28.9569 29.2846L21.6956 36.5459L28.9569 43.8073C29.4907 44.3411 29.4907 45.2064 28.9569 45.7402C28.4232 46.2739 27.5578 46.2739 27.0241 45.7402L18.7963 37.5124C18.2626 36.9786 18.2626 36.1132 18.7963 35.5795L27.0241 27.3517C27.5578 26.818 28.4232 26.818 28.9569 27.3517Z" fill="white"/>
<path fill-rule="evenodd" clip-rule="evenodd" d="M41.4426 22.4149C42.1519 22.6731 42.5175 23.4574 42.2593 24.1667L33.2935 48.7954C33.0353 49.5047 32.251 49.8703 31.5417 49.6121C30.8324 49.3539 30.4667 48.5696 30.7249 47.8603L39.6907 23.2316C39.949 22.5223 40.7333 22.1566 41.4426 22.4149Z" fill="white"/>
</svg>
