<svg width="111" height="84" viewBox="0 0 111 84" fill="none" xmlns="http://www.w3.org/2000/svg">
<path fill-rule="evenodd" clip-rule="evenodd" d="M11.9844 65.0728C8.05167 65.0728 4.86362 68.2609 4.86362 72.1935C4.86362 76.1262 8.05167 79.3142 11.9844 79.3142C15.917 79.3142 19.1051 76.1262 19.1051 72.1935C19.1051 68.2609 15.917 65.0728 11.9844 65.0728ZM0.77124 72.1935C0.77124 66.0007 5.79154 60.9805 11.9844 60.9805C18.1772 60.9805 23.1975 66.0007 23.1975 72.1935C23.1975 78.3864 18.1772 83.4066 11.9844 83.4066C5.79154 83.4066 0.77124 78.3864 0.77124 72.1935Z" fill="#0E104D"/>
<path fill-rule="evenodd" clip-rule="evenodd" d="M40.385 25.1329C36.4523 25.1329 33.2643 28.3209 33.2643 32.2536C33.2643 36.1863 36.4523 39.3744 40.385 39.3744C44.3176 39.3744 47.5057 36.1863 47.5057 32.2536C47.5057 28.3209 44.3177 25.1329 40.385 25.1329ZM29.1719 32.2536C29.1719 26.0608 34.1922 21.0405 40.385 21.0405C46.5778 21.0405 51.5981 26.0608 51.5981 32.2536C51.5981 38.4464 46.5778 43.4668 40.385 43.4668C34.1921 43.4668 29.1719 38.4464 29.1719 32.2536Z" fill="#0E104D"/>
<path fill-rule="evenodd" clip-rule="evenodd" d="M71.9792 51.1173C68.0465 51.1173 64.8585 54.3053 64.8585 58.238C64.8585 62.1706 68.0465 65.3587 71.9792 65.3587C75.9119 65.3587 79.0999 62.1706 79.0999 58.238C79.0999 54.3053 75.9119 51.1173 71.9792 51.1173ZM60.7661 58.238C60.7661 52.0451 65.7864 47.0249 71.9792 47.0249C78.172 47.0249 83.1923 52.0451 83.1923 58.238C83.1923 64.4308 78.172 69.4511 71.9792 69.4511C65.7864 69.4511 60.7661 64.4308 60.7661 58.238Z" fill="#0E104D"/>
<path fill-rule="evenodd" clip-rule="evenodd" d="M98.9472 4.71054C95.0145 4.71054 91.8265 7.89857 91.8265 11.8312C91.8265 15.7639 95.0145 18.9519 98.9472 18.9519C102.88 18.9519 106.068 15.7639 106.068 11.8312C106.068 7.89858 102.88 4.71054 98.9472 4.71054ZM87.7341 11.8312C87.7341 5.6384 92.7544 0.618164 98.9472 0.618164C105.14 0.618164 110.16 5.63839 110.16 11.8312C110.16 18.0241 105.14 23.0443 98.9472 23.0443C92.7544 23.0443 87.7341 18.0241 87.7341 11.8312Z" fill="#0E104D"/>
<path fill-rule="evenodd" clip-rule="evenodd" d="M95.3937 17.9609C96.3703 18.5296 96.7009 19.7823 96.1322 20.7588L78.3304 51.3289C77.7617 52.3055 76.509 52.6361 75.5325 52.0674C74.5559 51.4988 74.2252 50.2461 74.7939 49.2695L92.5958 18.6994C93.1645 17.7229 94.4171 17.3922 95.3937 17.9609Z" fill="#0E104D"/>
<path fill-rule="evenodd" clip-rule="evenodd" d="M45.8437 36.763C46.5613 35.89 47.8508 35.7641 48.7238 36.4817L66.1982 50.8458C67.0712 51.5634 67.1971 52.8529 66.4795 53.7259C65.7619 54.5989 64.4725 54.7248 63.5995 54.0072L46.1251 39.6431C45.2521 38.9254 45.1261 37.636 45.8437 36.763Z" fill="#0E104D"/>
<path fill-rule="evenodd" clip-rule="evenodd" d="M36.1881 38.0056C37.1018 38.6706 37.3035 39.9504 36.6386 40.8641L18.5912 65.6639C17.9262 66.5776 16.6465 66.7793 15.7327 66.1144C14.819 65.4494 14.6173 64.1696 15.2822 63.2559L33.3296 38.4561C33.9946 37.5424 35.2743 37.3407 36.1881 38.0056Z" fill="#0E104D"/>
</svg>
