<svg width="100" height="100" viewBox="0 0 100 100" fill="none" xmlns="http://www.w3.org/2000/svg">
<g clip-path="url(#clip0_442_238)">
<path fill-rule="evenodd" clip-rule="evenodd" d="M20.7394 19.7393C7.4841 32.9946 7.48409 54.4856 20.7394 67.7409C33.9947 80.9962 55.4857 80.9962 68.741 67.7409C81.9963 54.4856 81.9963 32.9946 68.741 19.7393C55.4857 6.484 33.9947 6.48401 20.7394 19.7393ZM18.3701 70.1102C3.80629 55.5464 3.8063 31.9338 18.3701 17.37C32.9339 2.80621 56.5465 2.8062 71.1103 17.37C85.6741 31.9338 85.6741 55.5464 71.1103 70.1102C56.5465 84.674 32.9339 84.674 18.3701 70.1102Z" fill="white"/>
<path fill-rule="evenodd" clip-rule="evenodd" d="M68.7137 67.7389C69.368 67.0846 70.4287 67.0846 71.083 67.7389L92.9629 89.6187C93.6171 90.273 93.6171 91.3338 92.9629 91.988C92.3086 92.6423 91.2479 92.6423 90.5936 91.988L68.7137 70.1081C68.0595 69.4539 68.0595 68.3931 68.7137 67.7389Z" fill="white"/>
<path fill-rule="evenodd" clip-rule="evenodd" d="M53.3952 33.6351C54.0461 32.9775 55.1069 32.9721 55.7644 33.6231L65.7494 43.5075C66.0673 43.8222 66.2461 44.2509 66.2461 44.6982C66.2461 45.1454 66.0673 45.5741 65.7494 45.8888L55.7644 55.7733C55.1069 56.4242 54.0461 56.4189 53.3952 55.7613C52.7442 55.1037 52.7496 54.043 53.4072 53.392L62.1894 44.6982L53.4072 36.0043C52.7496 35.3534 52.7442 34.2926 53.3952 33.6351Z" fill="white"/>
<path fill-rule="evenodd" clip-rule="evenodd" d="M36.242 33.6686C36.8929 34.3262 36.8876 35.3869 36.23 36.0379L27.4477 44.7318L36.23 53.4256C36.8876 54.0765 36.8929 55.1373 36.242 55.7949C35.5911 56.4524 34.5303 56.4578 33.8728 55.8068L23.8878 45.9224C23.5699 45.6077 23.3911 45.179 23.3911 44.7318C23.3911 44.2845 23.5699 43.8558 23.8878 43.5411L33.8728 33.6567C34.5303 33.0057 35.5911 33.0111 36.242 33.6686Z" fill="white"/>
<path fill-rule="evenodd" clip-rule="evenodd" d="M51.4118 27.7129C52.2801 28.0325 52.7249 28.9955 52.4053 29.8638L41.5157 59.4502C41.1961 60.3185 40.2331 60.7633 39.3648 60.4437C38.4964 60.1242 38.0516 59.1612 38.3712 58.2928L49.2609 28.7064C49.5805 27.8381 50.5435 27.3933 51.4118 27.7129Z" fill="white"/>
</g>
<defs>
<clipPath id="clip0_442_238">
<rect width="100" height="100" fill="white"/>
</clipPath>
</defs>
</svg>
