<svg width="100" height="100" viewBox="0 0 100 100" fill="none" xmlns="http://www.w3.org/2000/svg">
<path fill-rule="evenodd" clip-rule="evenodd" d="M12.4131 16.1739C11.5366 16.1739 10.8261 16.8844 10.8261 17.7609V81.2391C10.8261 82.1156 11.5366 82.8261 12.4131 82.8261H88.587C89.4634 82.8261 90.1739 82.1156 90.1739 81.2391V17.7609C90.1739 16.8844 89.4634 16.1739 88.587 16.1739H12.4131ZM7.65219 17.7609C7.65219 15.1315 9.7837 13 12.4131 13H88.587C91.2163 13 93.3478 15.1315 93.3478 17.7609V81.2391C93.3478 83.8685 91.2163 86 88.587 86H12.4131C9.7837 86 7.65219 83.8685 7.65219 81.2391V17.7609Z" fill="white"/>
<path fill-rule="evenodd" clip-rule="evenodd" d="M91.7608 32.4879H9.23914V29.314H91.7608V32.4879Z" fill="white"/>
<path fill-rule="evenodd" clip-rule="evenodd" d="M32.2387 43.3314C32.8585 42.7117 33.8633 42.7117 34.483 43.3314L47.9087 56.7571C48.5284 57.3768 48.5284 58.3816 47.9087 59.0014L34.483 72.427C33.8633 73.0468 32.8585 73.0468 32.2387 72.427C31.619 71.8073 31.619 70.8025 32.2387 70.1827L44.5422 57.8792L32.2387 45.5757C31.619 44.956 31.619 43.9512 32.2387 43.3314Z" fill="white"/>
<path fill-rule="evenodd" clip-rule="evenodd" d="M45.2313 71.3048C45.2313 70.4283 45.9418 69.7178 46.8182 69.7178H64.2748C65.1512 69.7178 65.8617 70.4283 65.8617 71.3048C65.8617 72.1812 65.1512 72.8917 64.2748 72.8917H46.8182C45.9418 72.8917 45.2313 72.1812 45.2313 71.3048Z" fill="white"/>
</svg>
