<svg width="55" height="55" viewBox="0 0 55 55" fill="none" xmlns="http://www.w3.org/2000/svg">
<mask id="mask0_992_2388" style="mask-type:alpha" maskUnits="userSpaceOnUse" x="0" y="0" width="55" height="55">
<rect x="0.841797" width="53.3165" height="54.6835" rx="26.6582" fill="#D9D9D9"/>
</mask>
<g mask="url(#mask0_992_2388)">
<path d="M27.2812 54.2461C42.2609 54.2461 54.4043 42.1027 54.4043 27.123C54.4043 12.1434 42.2609 0 27.2812 0C12.3016 0 0.158203 12.1434 0.158203 27.123C0.158203 42.1027 12.3016 54.2461 27.2812 54.2461Z" fill="url(#paint0_linear_992_2388)"/>
<path d="M27.2712 32.0611C25.8677 32.0611 24.5022 31.7827 23.2114 31.2342L8.31923 24.8926C7.08471 24.3656 6.12692 23.3913 5.62648 22.1452C5.12439 20.899 5.1393 19.5336 5.66459 18.2974C6.45502 16.4398 8.27283 15.2401 10.2961 15.2401C10.9722 15.2401 11.6317 15.376 12.2581 15.6411L27.1486 21.9828C27.1867 21.9993 27.2265 22.0076 27.2679 22.0076C27.2994 22.0076 27.3292 22.0026 27.3574 21.9944L43.6663 16.8955C44.1519 16.7431 44.6556 16.6669 45.161 16.6669C47.3732 16.6669 49.3037 18.0837 49.9632 20.1931C50.6923 22.5246 49.6484 25.0334 47.4826 26.1553C47.2257 26.2878 46.9507 26.4022 46.6673 26.49L30.3584 31.5888C29.3575 31.902 28.3185 32.0594 27.2696 32.0594L27.2712 32.0611Z" fill="url(#paint1_linear_992_2388)"/>
<path d="M27.2712 32.1572C25.8743 32.1572 24.479 31.8771 23.1749 31.322L8.28274 24.9804C7.02336 24.4435 6.049 23.4509 5.53862 22.1816C5.02824 20.9123 5.0415 19.5203 5.57839 18.2609C6.68532 15.6626 9.69954 14.4497 12.2978 15.5549L27.1883 21.8966C27.2347 21.9164 27.2861 21.9181 27.3325 21.9048L43.6414 16.806C46.3358 15.9642 49.2142 17.4705 50.0576 20.1666C50.8 22.5428 49.7378 25.098 47.5306 26.2414C47.2688 26.3773 46.9887 26.4916 46.7004 26.5828L30.3915 31.6816C29.3757 31.9998 28.3234 32.1572 27.2728 32.1572H27.2712ZM10.2928 18.0289C9.42115 18.0289 8.59096 18.541 8.22971 19.3911C7.99441 19.9412 7.98944 20.5494 8.21314 21.1045C8.43685 21.6596 8.86272 22.0937 9.41287 22.3291L24.3034 28.6707C25.9588 29.3749 27.813 29.4677 29.5281 28.9308L45.8354 23.832C45.963 23.7923 46.0873 23.7409 46.2016 23.6812C47.166 23.1824 47.63 22.0656 47.3052 21.0266C46.9357 19.8484 45.678 19.1889 44.4998 19.5568L28.1925 24.6556C27.4932 24.8743 26.7343 24.8379 26.0582 24.5495L11.1677 18.2079C10.8827 18.0869 10.5861 18.0289 10.2944 18.0289H10.2928Z" fill="white"/>
<path d="M16.2615 47.2449C15.2109 47.2449 14.2001 46.9201 13.3384 46.307C12.2414 45.5249 11.5123 44.3633 11.2886 43.0343C11.0649 41.7053 11.3714 40.368 12.1536 39.2694L23.0837 23.8984C23.8658 22.7997 25.0291 22.0706 26.358 21.8469C26.6381 21.7988 26.9231 21.7756 27.2048 21.7756C28.2504 21.7756 29.2596 22.0988 30.1196 22.7119C31.2166 23.4924 31.9457 24.6556 32.1694 25.9846C32.3931 27.3136 32.0866 28.6508 31.3044 29.7495L20.3743 45.1205C19.912 45.7718 19.2939 46.3087 18.588 46.6732C17.8688 47.0461 17.0635 47.2432 16.2598 47.2432L16.2615 47.2449Z" fill="url(#paint2_linear_992_2388)"/>
<path d="M16.2616 47.3211C15.2176 47.3211 14.1819 46.9997 13.2937 46.3683C12.1802 45.5762 11.4411 44.3964 11.2124 43.0475C10.9854 41.6987 11.297 40.3415 12.0907 39.2263L23.0208 23.8553C23.8145 22.74 24.996 22.001 26.3449 21.774C27.6937 21.547 29.0509 21.8585 30.1644 22.6522C31.278 23.4443 32.017 24.6241 32.2457 25.9747C32.4727 27.3235 32.1612 28.6807 31.3675 29.7959L20.4374 45.1669C19.9684 45.8264 19.3404 46.3716 18.6246 46.7428C17.8772 47.1306 17.0686 47.3211 16.2632 47.3211H16.2616ZM27.1983 24.5844C27.074 24.5844 26.948 24.5943 26.8221 24.6159C26.2322 24.7153 25.7152 25.0384 25.3689 25.5273L14.4388 40.8983C14.0924 41.3855 13.9549 41.9787 14.0543 42.5686C14.1538 43.1586 14.4769 43.6739 14.9641 44.0202C15.6518 44.5107 16.5449 44.572 17.2956 44.1843C17.6121 44.0202 17.8772 43.7882 18.086 43.4966L29.0161 28.1239C29.3624 27.6367 29.4999 27.0435 29.4005 26.4536C29.3011 25.8636 28.978 25.3483 28.4908 25.0003C28.108 24.7269 27.6589 24.5844 27.1983 24.5844Z" fill="white"/>
<path d="M37.8401 47.23C36.2079 47.23 34.6718 46.4445 33.7322 45.1304L23.798 31.2292C22.368 29.2291 21.6952 26.7783 21.904 24.3275L23.2794 8.19917C23.4998 5.6191 25.697 3.59912 28.2804 3.59912C28.4246 3.59912 28.5688 3.60575 28.7146 3.61735C30.0518 3.73169 31.2665 4.35972 32.1315 5.38711C32.9965 6.41449 33.4107 7.71696 33.2964 9.05422L32.0155 25.2289L41.9149 39.2892C42.6937 40.3779 43.0002 41.7069 42.7798 43.0309C42.5595 44.3549 41.8353 45.5149 40.7433 46.2954C40.5478 46.4346 40.3406 46.5605 40.1285 46.6715C39.4259 47.0361 38.6338 47.2283 37.8384 47.2283L37.8401 47.23Z" fill="url(#paint3_linear_992_2388)"/>
<path d="M37.8401 47.3244C36.2261 47.3244 34.6419 46.5655 33.656 45.1851L23.7218 31.2856C22.2785 29.2673 21.6007 26.7932 21.8095 24.3209L23.1849 8.19255C23.4252 5.37883 25.9108 3.28263 28.7229 3.52456C30.0866 3.64056 31.3228 4.28184 32.2044 5.32746C33.0859 6.37308 33.5085 7.70039 33.3909 9.06417L32.1099 25.2389L41.9927 39.2379C42.7832 40.3432 43.098 41.7003 42.8726 43.0492C42.6473 44.398 41.9115 45.5795 40.798 46.3749C40.5991 46.5174 40.3887 46.6467 40.1716 46.7577C39.4309 47.1405 38.6305 47.3244 37.8368 47.3244H37.8401ZM28.2871 6.38799C27.1387 6.38799 26.1577 7.27121 26.0583 8.43779L24.6829 24.5645C24.5305 26.3558 25.0226 28.1471 26.0666 29.6086L36.0007 43.5098C36.6437 44.4096 37.8683 44.7062 38.8476 44.1992C38.9421 44.1495 39.0349 44.0931 39.1243 44.0301C39.6099 43.6838 39.933 43.1668 40.0308 42.5769C40.1285 41.987 39.991 41.3937 39.6447 40.9082L29.1554 26.0509L30.5191 8.82886C30.5705 8.22403 30.3866 7.64405 30.0005 7.1867C29.6144 6.72935 29.0742 6.4493 28.4776 6.39793C28.413 6.39296 28.3484 6.38965 28.2854 6.38965L28.2871 6.38799Z" fill="white"/>
</g>
<defs>
<linearGradient id="paint0_linear_992_2388" x1="0.158203" y1="27.123" x2="54.4059" y2="27.123" gradientUnits="userSpaceOnUse">
<stop stop-color="#FF46AC"/>
<stop offset="0.2" stop-color="#FF518E"/>
<stop offset="0.63" stop-color="#FF6D42"/>
<stop offset="0.94" stop-color="#FF8308"/>
</linearGradient>
<linearGradient id="paint1_linear_992_2388" x1="5.25861" y1="23.6514" x2="50.1952" y2="23.6514" gradientUnits="userSpaceOnUse">
<stop stop-color="#FF46AC"/>
<stop offset="0.13" stop-color="#FF47A7"/>
<stop offset="0.28" stop-color="#FF4D99"/>
<stop offset="0.44" stop-color="#FF5581"/>
<stop offset="0.61" stop-color="#FF6161"/>
<stop offset="0.78" stop-color="#FF7137"/>
<stop offset="0.94" stop-color="#FF8308"/>
</linearGradient>
<linearGradient id="paint2_linear_992_2388" x1="11.2173" y1="34.5103" x2="35.636" y2="34.5103" gradientUnits="userSpaceOnUse">
<stop stop-color="#FF46AC"/>
<stop offset="0.46" stop-color="#FF625E"/>
<stop offset="0.94" stop-color="#FF8308"/>
</linearGradient>
<linearGradient id="paint3_linear_992_2388" x1="21.8675" y1="25.4145" x2="42.8511" y2="25.4145" gradientUnits="userSpaceOnUse">
<stop stop-color="#FF46AC"/>
<stop offset="0.11" stop-color="#FF508E"/>
<stop offset="0.31" stop-color="#FF625F"/>
<stop offset="0.5" stop-color="#FF7039"/>
<stop offset="0.67" stop-color="#FF7A1E"/>
<stop offset="0.83" stop-color="#FF800D"/>
<stop offset="0.94" stop-color="#FF8308"/>
</linearGradient>
</defs>
</svg>
