<svg width="57" height="130" viewBox="0 0 57 130" fill="none" xmlns="http://www.w3.org/2000/svg">
<path d="M20.2105 0.742856C21.193 0.247617 22.3596 0 23.7105 0H53.7368C54.5965 0 55.2719 0.247617 55.7632 0.742856C56.2544 1.2381 56.5 1.91905 56.5 2.78571V127.214C56.5 128.081 56.2544 128.762 55.7632 129.257C55.2719 129.752 54.5965 130 53.7368 130H24.6316C23.7719 130 23.0965 129.752 22.6053 129.257C22.114 128.762 21.8684 128.081 21.8684 127.214V32.6857C21.8684 32.4381 21.7456 32.1905 21.5 31.9429C21.3772 31.6952 21.193 31.6333 20.9474 31.7571L3.44737 35.2857H2.71053C1.23684 35.2857 0.5 34.419 0.5 32.6857V11.3286C0.5 9.59523 1.23684 8.48095 2.71053 7.98572L20.2105 0.742856Z" fill="url(#paint0_linear_992_2212)"/>
<defs>
<linearGradient id="paint0_linear_992_2212" x1="-3.55299" y1="55.7143" x2="62.7628" y2="55.7143" gradientUnits="userSpaceOnUse">
<stop stop-color="#FF512F"/>
<stop offset="1" stop-color="#F09819"/>
</linearGradient>
</defs>
</svg>
