<svg width="56" height="130" viewBox="0 0 56 130" fill="none" xmlns="http://www.w3.org/2000/svg">
<path d="M19.7105 0.742856C20.693 0.247617 21.8596 0 23.2105 0H53.2368C54.0965 0 54.7719 0.247617 55.2632 0.742856C55.7544 1.2381 56 1.91905 56 2.78571V127.214C56 128.081 55.7544 128.762 55.2632 129.257C54.7719 129.752 54.0965 130 53.2368 130H24.1316C23.2719 130 22.5965 129.752 22.1053 129.257C21.614 128.762 21.3684 128.081 21.3684 127.214V32.6857C21.3684 32.4381 21.2456 32.1905 21 31.9429C20.8772 31.6952 20.693 31.6333 20.4474 31.7571L2.94737 35.2857H2.21053C0.736842 35.2857 0 34.419 0 32.6857V11.3286C0 9.59524 0.736842 8.48095 2.21053 7.98572L19.7105 0.742856Z" fill="url(#paint0_linear_827_7484)"/>
<defs>
<linearGradient id="paint0_linear_827_7484" x1="-4.05299" y1="55.7143" x2="62.2628" y2="55.7143" gradientUnits="userSpaceOnUse">
<stop stop-color="#FF512F"/>
<stop offset="1" stop-color="#F09819"/>
</linearGradient>
</defs>
</svg>
