<svg width="96" height="130" viewBox="0 0 96 130" fill="none" xmlns="http://www.w3.org/2000/svg">
<path d="M48.4237 99.3362C48.0565 99.581 47.9341 99.8258 48.0565 100.071C48.1789 100.315 48.4237 100.438 48.791 100.438H92.4915C93.3484 100.438 94.0217 100.683 94.5113 101.172C95.0009 101.662 95.2458 102.335 95.2458 103.192V127.246C95.2458 128.103 95.0009 128.776 94.5113 129.266C94.0217 129.755 93.3484 130 92.4915 130H4.35593C3.49906 130 2.8258 129.755 2.33616 129.266C1.84652 128.776 1.6017 128.103 1.6017 127.246V104.661C1.6017 103.314 2.09134 102.213 3.07062 101.356C8.5791 96.5819 14.0876 91.3795 19.596 85.7486C25.2269 80.1177 28.7768 76.5678 30.2458 75.0989C30.2458 75.0989 34.3465 70.9981 42.548 62.7966C53.565 52.0245 59.0734 44.3126 59.0734 39.661C59.0734 36.7232 57.9718 34.3362 55.7684 32.5C53.565 30.5414 50.7495 29.5621 47.322 29.5621C43.7721 29.5621 40.8955 30.5414 38.6921 32.5C36.4887 34.3362 35.387 36.8456 35.387 40.0282V43.7006C35.387 44.5574 35.1422 45.2307 34.6525 45.7203C34.1629 46.21 33.4896 46.4548 32.6328 46.4548H3.25424C2.39736 46.4548 1.72411 46.21 1.23446 45.7203C0.744821 45.2307 0.5 44.5574 0.5 43.7006V34.5198C0.989642 27.5424 3.31544 21.483 7.4774 16.3418C11.7618 11.0781 17.3315 7.0386 24.1864 4.22316C31.1638 1.40772 38.8757 0 47.322 0C56.7476 0 65.0104 1.77495 72.1102 5.32486C79.21 8.75235 84.596 13.4652 88.2684 19.4633C92.0631 25.339 93.9605 31.8267 93.9605 38.9266C93.9605 43.9454 92.7364 48.903 90.2881 53.7994C87.9623 58.6958 84.4736 63.8371 79.822 69.2232C74.9256 74.7316 67.0913 82.3211 56.3192 91.9915L48.4237 99.3362Z" fill="url(#paint0_linear_827_7485)"/>
<defs>
<linearGradient id="paint0_linear_827_7485" x1="-5.00847" y1="56.5536" x2="101.489" y2="56.5536" gradientUnits="userSpaceOnUse">
<stop stop-color="#FF512F"/>
<stop offset="1" stop-color="#F09819"/>
</linearGradient>
</defs>
</svg>
