<svg width="95" height="130" viewBox="0 0 95 130" fill="none" xmlns="http://www.w3.org/2000/svg">
<path d="M48.0904 99.3362C47.7231 99.581 47.6007 99.8258 47.7231 100.071C47.8455 100.315 48.0904 100.438 48.4576 100.438H92.1582C93.015 100.438 93.6883 100.683 94.1779 101.172C94.6676 101.662 94.9124 102.335 94.9124 103.192V127.246C94.9124 128.103 94.6676 128.776 94.1779 129.266C93.6883 129.755 93.015 130 92.1582 130H4.02256C3.16569 130 2.49243 129.755 2.00278 129.266C1.51314 128.776 1.26832 128.103 1.26832 127.246V104.661C1.26832 103.314 1.75796 102.213 2.73725 101.356C8.24572 96.5819 13.7542 91.3795 19.2627 85.7486C24.8936 80.1177 28.4435 76.5678 29.9124 75.0989C29.9124 75.0989 34.0131 70.9981 42.2146 62.7966C53.2316 52.0245 58.7401 44.3126 58.7401 39.661C58.7401 36.7232 57.6384 34.3362 55.435 32.5C53.2316 30.5414 50.4162 29.5621 46.9887 29.5621C43.4388 29.5621 40.5621 30.5414 38.3587 32.5C36.1553 34.3362 35.0536 36.8456 35.0536 40.0283V43.7006C35.0536 44.5574 34.8088 45.2307 34.3192 45.7203C33.8295 46.21 33.1563 46.4548 32.2994 46.4548H2.92086C2.06399 46.4548 1.39073 46.21 0.901089 45.7203C0.411447 45.2307 0.166626 44.5574 0.166626 43.7006V34.5198C0.656268 27.5424 2.98207 21.483 7.14403 16.3418C11.4284 11.0781 16.9981 7.0386 23.8531 4.22316C30.8305 1.40772 38.5423 0 46.9887 0C56.4143 0 64.677 1.77495 71.7768 5.32486C78.8766 8.75235 84.2627 13.4652 87.935 19.4633C91.7297 25.339 93.6271 31.8267 93.6271 38.9266C93.6271 43.9454 92.403 48.903 89.9548 53.7994C87.629 58.6959 84.1403 63.8371 79.4887 69.2232C74.5922 74.7316 66.758 82.3211 55.9858 91.9915L48.0904 99.3362Z" fill="url(#paint0_linear_992_2217)"/>
<defs>
<linearGradient id="paint0_linear_992_2217" x1="-5.34185" y1="56.5536" x2="101.155" y2="56.5536" gradientUnits="userSpaceOnUse">
<stop stop-color="#FF512F"/>
<stop offset="1" stop-color="#F09819"/>
</linearGradient>
</defs>
</svg>
