<svg width="95" height="130" viewBox="0 0 95 130" fill="none" xmlns="http://www.w3.org/2000/svg">
<path d="M90.438 66.6525C92.8862 72.2834 94.1103 78.404 94.1103 85.0141C94.1103 91.2571 92.825 97.5 90.2544 103.743C86.9493 111.822 81.5021 118.249 73.9126 123.023C66.3231 127.674 57.5096 130 47.4719 130C37.6791 130 28.9267 127.613 21.2149 122.839C13.6254 118.065 8.05572 111.577 4.50581 103.376C2.42483 98.8465 1.20073 93.4605 0.833496 87.2175C0.833496 85.3814 1.75158 84.4633 3.58773 84.4633H32.9663C34.68 84.4633 35.6593 85.3202 35.9041 87.0339C36.3938 90.5838 37.1894 93.3381 38.2911 95.2966C40.2497 98.7241 43.2487 100.438 47.2883 100.438C51.3278 100.438 54.3881 98.7241 56.4691 95.2966C58.3053 92.1139 59.2233 88.3192 59.2233 83.9124C59.2233 79.3832 58.3665 75.5273 56.6527 72.3446C54.4493 68.6723 51.2666 66.8362 47.1047 66.8362C45.6358 66.8362 44.0444 67.3258 42.3307 68.3051C40.7393 69.2844 38.4747 70.8757 35.5369 73.0791C35.0472 73.5687 34.4352 73.8136 33.7007 73.8136C32.8439 73.8136 32.1706 73.3851 31.681 72.5283L17.1753 51.9633C16.8081 51.3512 16.6245 50.7392 16.6245 50.1271C16.6245 49.2702 17.0529 48.597 17.9098 48.1073L44.7177 30.6638C45.0849 30.5414 45.2073 30.3578 45.0849 30.113C44.9625 29.7458 44.7177 29.5622 44.3504 29.5622H7.26005C6.40318 29.5622 5.72992 29.3173 5.24028 28.8277C4.75063 28.338 4.50581 27.6648 4.50581 26.8079V2.75423C4.50581 1.89736 4.75063 1.22411 5.24028 0.734463C5.72992 0.244819 6.40318 0 7.26005 0H89.1527C90.0096 0 90.6828 0.244819 91.1725 0.734463C91.6621 1.22411 91.9069 1.89736 91.9069 2.75423V29.7458C91.9069 31.3371 91.3561 32.5 90.2544 33.2345L70.4239 47.0056C69.8118 47.4953 69.9342 47.9237 70.7911 48.291C79.8495 51.1064 86.3985 57.2269 90.438 66.6525Z" fill="url(#paint0_linear_992_2222)"/>
<defs>
<linearGradient id="paint0_linear_992_2222" x1="-3.02172" y1="55.0847" x2="99.8031" y2="55.0847" gradientUnits="userSpaceOnUse">
<stop stop-color="#FF512F"/>
<stop offset="1" stop-color="#F09819"/>
</linearGradient>
</defs>
</svg>
