<svg width="94" height="130" viewBox="0 0 94 130" fill="none" xmlns="http://www.w3.org/2000/svg">
<path d="M90.1045 66.6525C92.5527 72.2834 93.7768 78.404 93.7768 85.0141C93.7768 91.2571 92.4915 97.5 89.9209 103.743C86.6158 111.822 81.1686 118.249 73.5791 123.023C65.9896 127.674 57.1761 130 47.1384 130C37.3456 130 28.5932 127.613 20.8814 122.839C13.2919 118.065 7.72222 111.577 4.17232 103.376C2.09134 98.8465 0.867231 93.4605 0.5 87.2175C0.5 85.3814 1.41808 84.4633 3.25424 84.4633H32.6328C34.3465 84.4633 35.3258 85.3202 35.5706 87.0339C36.0603 90.5838 36.8559 93.338 37.9576 95.2966C39.9162 98.7241 42.9153 100.438 46.9548 100.438C50.9944 100.438 54.0546 98.7241 56.1356 95.2966C57.9718 92.1139 58.8898 88.3192 58.8898 83.9124C58.8898 79.3832 58.033 75.5273 56.3192 72.3446C54.1158 68.6723 50.9331 66.8362 46.7712 66.8362C45.3023 66.8362 43.7109 67.3258 41.9972 68.3051C40.4058 69.2844 38.1412 70.8757 35.2034 73.0791C34.7137 73.5687 34.1017 73.8136 33.3672 73.8136C32.5104 73.8136 31.8371 73.3851 31.3475 72.5283L16.8418 51.9633C16.4746 51.3512 16.291 50.7392 16.291 50.1271C16.291 49.2702 16.7194 48.597 17.5763 48.1073L44.3842 30.6638C44.7514 30.5414 44.8738 30.3578 44.7514 30.113C44.629 29.7458 44.3842 29.5622 44.0169 29.5622H6.92655C6.06968 29.5622 5.39642 29.3173 4.90678 28.8277C4.41714 28.338 4.17232 27.6648 4.17232 26.8079V2.75423C4.17232 1.89736 4.41714 1.22411 4.90678 0.734463C5.39642 0.244819 6.06968 0 6.92655 0H88.8192C89.6761 0 90.3493 0.244819 90.839 0.734463C91.3286 1.22411 91.5734 1.89736 91.5734 2.75423V29.7458C91.5734 31.3371 91.0226 32.5 89.9209 33.2345L70.0904 47.0056C69.4783 47.4953 69.6008 47.9237 70.4576 48.291C79.516 51.1064 86.065 57.2269 90.1045 66.6525Z" fill="url(#paint0_linear_827_7486)"/>
<defs>
<linearGradient id="paint0_linear_827_7486" x1="-3.35521" y1="55.0847" x2="99.4696" y2="55.0847" gradientUnits="userSpaceOnUse">
<stop stop-color="#FF512F"/>
<stop offset="1" stop-color="#F09819"/>
</linearGradient>
</defs>
</svg>
