<svg width="100" height="100" viewBox="0 0 100 100" fill="none" xmlns="http://www.w3.org/2000/svg">
<path fill-rule="evenodd" clip-rule="evenodd" d="M43.7475 13.0691C42.8 13.0691 42.0403 13.8405 42.0403 14.7763V22.855C42.0403 23.4903 41.6462 24.0591 41.0513 24.2822C40.0776 24.6473 39.1989 24.9891 38.3626 25.4073C37.7758 25.7007 37.067 25.5857 36.6031 25.1217L30.8718 19.3904C30.2171 18.7358 29.1397 18.7358 28.4851 19.3904L19.3699 28.5056C18.7157 29.1598 18.7153 30.2362 19.3686 30.8909C19.3681 30.8905 19.369 30.8914 19.3686 30.8909L25.0983 36.5903C25.5645 37.054 25.6808 37.7645 25.3867 38.3526C24.9598 39.2064 24.5895 40.0892 24.2759 41.0016C24.0643 41.6171 23.4853 42.0304 22.8344 42.0304H14.7557C13.8083 42.0304 13.0486 42.8019 13.0486 43.7376V56.6025C13.0486 57.5499 13.82 58.3097 14.7557 58.3097H22.8344C23.4698 58.3097 24.0385 58.7038 24.2616 59.2987C24.614 60.2384 24.9951 61.147 25.4046 62.0245C25.6763 62.6067 25.5538 63.2967 25.0983 63.7498L19.3699 69.4477C19.3696 69.4481 19.3702 69.4474 19.3699 69.4477C18.7162 70.1025 18.7156 71.1801 19.3699 71.8345L28.4851 80.9496C29.1397 81.6043 30.2171 81.6043 30.8718 80.9496L36.6031 75.2184C37.067 74.7544 37.7758 74.6394 38.3626 74.9328C39.2164 75.3597 40.0992 75.73 41.0116 76.0436C41.6271 76.2552 42.0403 76.8343 42.0403 77.4851V85.5638C42.0403 86.5112 42.8118 87.271 43.7475 87.271H56.6124C57.5599 87.271 58.3196 86.4995 58.3196 85.5638V77.4851C58.3196 76.8497 58.7138 76.281 59.3087 76.0579C60.2824 75.6928 61.1611 75.351 61.9974 74.9328C62.5842 74.6394 63.293 74.7544 63.7569 75.2184L69.4882 80.9496C70.1429 81.6043 71.2202 81.6043 71.8749 80.9496L80.9901 71.8345C81.6445 71.18 81.6447 70.1031 80.9907 69.4484C80.9905 69.4482 80.9909 69.4486 80.9907 69.4484L75.2617 63.7498C74.7954 63.2861 74.6792 62.5756 74.9733 61.9874C75.4001 61.1337 75.7704 60.2508 76.0841 59.3384C76.2956 58.7229 76.8747 58.3097 77.5256 58.3097H85.6043C86.5517 58.3097 87.3114 57.5382 87.3114 56.6025V43.7376C87.3114 42.7901 86.54 42.0304 85.6043 42.0304H77.5256C76.8902 42.0304 76.3214 41.6362 76.0983 41.0413C75.7459 40.1016 75.3649 39.1931 74.9553 38.3156C74.6837 37.7334 74.8062 37.0433 75.2617 36.5903L80.9901 30.8923C80.9897 30.8926 80.9904 30.8919 80.9901 30.8923C81.6437 30.2375 81.6444 29.1599 80.9901 28.5056L71.8749 19.3904C71.2202 18.7358 70.1429 18.7358 69.4882 19.3904L63.7569 25.1217C63.293 25.5857 62.5842 25.7007 61.9974 25.4073C61.1436 24.9804 60.2608 24.6101 59.3484 24.2964C58.7329 24.0849 58.3196 23.5058 58.3196 22.855V14.7763C58.3196 13.8288 57.5481 13.0691 56.6124 13.0691H43.7475ZM38.9918 14.7763C38.9918 12.1756 41.0977 10.0205 43.7475 10.0205H56.6124C59.2131 10.0205 61.3682 12.1264 61.3682 14.7763V21.7925C61.702 21.9239 62.0325 22.0624 62.3595 22.2078L67.3326 17.2348C69.1777 15.3896 72.1854 15.3896 74.0305 17.2348L83.1458 26.35C84.9909 28.1951 84.9909 31.2028 83.1458 33.0479L83.1429 33.0508L78.1597 38.0075C78.2992 38.329 78.4352 38.6538 78.5677 38.9818H85.6043C88.2049 38.9818 90.36 41.0877 90.36 43.7376V56.6025C90.36 59.2031 88.2541 61.3582 85.6043 61.3582H78.588C78.457 61.6911 78.3189 62.0206 78.1739 62.3467L83.1458 67.2921C84.9909 69.1373 84.9909 72.1449 83.1458 73.9901L74.0305 83.1053C72.1854 84.9504 69.1777 84.9504 67.3326 83.1053L62.3547 78.1274C62.0253 78.2705 61.6959 78.4051 61.3682 78.5341V85.5638C61.3682 88.1644 59.2623 90.3195 56.6124 90.3195H43.7475C41.1469 90.3195 38.9918 88.2136 38.9918 85.5638V78.5476C38.6579 78.4162 38.3275 78.2777 38.0005 78.1323L33.0274 83.1053C31.1823 84.9504 28.1746 84.9504 26.3294 83.1053L17.2143 73.9901C15.3691 72.1449 15.3691 69.1373 17.2143 67.2921L22.2003 62.3325C22.0607 62.011 21.9247 61.6863 21.7922 61.3582H14.7557C12.1551 61.3582 10 59.2523 10 56.6025V43.7376C10 41.1369 12.1059 38.9818 14.7557 38.9818H21.772C21.903 38.6489 22.041 38.3194 22.186 37.9933L17.2171 33.0508L17.2143 33.0479C15.3691 31.2028 15.3691 28.1951 17.2143 26.35L26.3294 17.2348C28.1746 15.3896 31.1823 15.3896 33.0274 17.2348L38.0053 22.2126C38.3347 22.0696 38.6641 21.935 38.9918 21.806V14.7763Z" fill="white"/>
<path fill-rule="evenodd" clip-rule="evenodd" d="M36.3287 37.9955C36.9239 37.4003 37.8891 37.4003 38.4843 37.9955L49.5811 49.0923C49.867 49.3781 50.0276 49.7658 50.0276 50.1701C50.0276 50.5744 49.867 50.9621 49.5811 51.2479L38.4843 62.3447C37.8891 62.9399 36.9239 62.9399 36.3287 62.3447C35.7334 61.7494 35.7334 60.7843 36.3287 60.189L46.3476 50.1701L36.3287 40.1512C35.7334 39.5559 35.7334 38.5908 36.3287 37.9955Z" fill="white"/>
<path fill-rule="evenodd" clip-rule="evenodd" d="M46.979 61.267C46.979 60.4251 47.6615 59.7427 48.5033 59.7427H62.923C63.7648 59.7427 64.4473 60.4251 64.4473 61.267C64.4473 62.1088 63.7648 62.7912 62.923 62.7912H48.5033C47.6615 62.7912 46.979 62.1088 46.979 61.267Z" fill="white"/>
</svg>
